<?xml version="1.0" encoding="UTF-8"?>
<svg id="_レイヤー_2" data-name="レイヤー 2" xmlns="http://www.w3.org/2000/svg" viewBox="0 0 600 114.15">
  <defs>
    <style>
      .cls-1 {
        fill: #958327;
      }

      .cls-2 {
        fill: #13ae67;
      }

      .cls-3 {
        fill: #8fc31f;
      }
    </style>
  </defs>
  <g id="_レイヤー_1-2" data-name=" レイヤー 1">
    <g>
      <g>
        <path class="cls-2" d="M15.82,112.47c0-.99,0-2.97,5.29-8.59,5.29-5.29,9.91-8.59,11.23-9.25,5.62-3.97,10.24-5.95,10.24-5.95,2.64-1.32,4.3-1.98,6.28-3.63,2.31-2.31,3.63-4.96,4.63-6.61l-7.27-3.3v-.99c.99,0,2.64-.66,4.63-1.32,3.3-.99,6.94-2.31,11.23-4.63,3.96-1.98,5.62-3.63,7.27-5.29,2.64-2.97,2.64-4.96,2.31-5.62v-.99c-.33-.99-1.32-1.32-2.31-1.65-1.32-.33-2.31-.66-3.63-.99-.99,0-2.31-.66-3.96-1.32.99-.66,2.97-1.32,4.96-2.31,3.3-1.32,5.62-2.31,6.61-2.64,3.63-1.32,8.26-3.3,13.55-6.28,5.62-2.97,9.25-5.95,10.9-7.27s2.97-2.64,3.96-3.63c0,1.65-.33,3.97-.99,6.28-.33,1.65-2.31,8.26-7.27,14.21-3.3,4.3-6.94,6.28-7.93,6.94-2.64,1.65-4.96,2.31-6.94,2.97,1.65,0,3.3,0,4.63.33,0,.99-.66,2.64-1.32,3.97-1.98,4.3-4.96,6.61-7.27,8.26-.99.99-4.3,2.97-8.59,4.3-2.31.66-3.96.66-5.62.66,1.32.66,2.31.99,3.63,1.65h.33c0,.99-.66,2.31-1.32,3.97-.66,1.65-2.31,4.63-8.92,8.59-3.63,2.31-6.94,3.63-9.25,4.63-4.96,2.31-5.95,1.98-9.58,3.63-3.3,1.32-6.28,2.97-9.58,5.95-2.97,2.64-5.29,5.62-6.61,7.6-1.32-.33-2.64-1.32-2.97-2.64h0l-.33.99-.02-.03Z"/>
        <path class="cls-2" d="M13.51,109.82c.66,0,.99-.66,2.31-2.97,1.32-1.98,3.63-4.96,7.93-11.23,1.32-1.65,2.64-3.3,3.3-6.28,0-.66,0-1.32.66-2.31.66-4.3.99-7.93.99-8.26,0-5.95,4.3-12.23,5.62-14.54,3.63-5.62,7.27-8.59,10.57-11.23,5.29-4.3,9.58-5.95,18.17-9.58,10.24-4.3,11.56-3.63,20.16-7.93,0,0,6.61-2.97,14.21-8.92,1.98-1.32,3.96-2.97,5.95-5.95.66-.99,2.64-3.63,3.96-7.93,0-.99.99-3.3,1.32-6.61,0-3.97-.33-4.96-.66-5.29-.66-.66-1.65-.99-2.31-.66-.33,0-.66.66-.99.99-1.32,1.98-2.31,2.97-2.31,2.97-.99,1.65-4.96,5.62-11.23,9.25-1.32.66-6.28,3.63-14.21,6.28-4.3,1.32-4.63.99-12.89,3.3-3.63.99-8.26,2.31-13.88,3.97-6.94,2.31-11.23,3.63-16.85,6.61-7.27,3.63-10.9,6.94-11.9,8.26-2.31,2.31-4.3,4.63-5.95,6.61-1.98,2.64-4.3,5.29-6.61,9.25-.66.99-1.65,3.3-3.63,7.6-2.31,4.63-2.64,5.62-2.97,6.94-.66,1.32-1.32,3.97-1.98,7.6,0,1.65-.66,4.3,0,7.6.33,3.3,1.65,5.62,3.96,9.58,6.94,11.9,7.93,13.55,8.92,13.22h0l.33-.33h0Z"/>
      </g>
      <path class="cls-3" d="M12.19,84.05c.66-3.3,1.32-7.6,3.3-12.56,2.64-6.61,5.29-10.9,7.6-14.21,4.96-7.27,9.91-11.9,12.23-13.88,3.96-3.63,7.6-5.95,10.24-7.27,3.63-1.98,6.94-3.3,9.58-4.3-1.65,0-4.3.66-6.94,1.32-3.63.99-11.23,3.3-19.16,10.24-2.31,1.98-5.95,5.29-9.58,10.57-3.96,6.28-5.29,11.56-5.62,12.89-.66,2.97-.99,5.62-1.32,7.27-.33,3.97-.33,7.6,0,9.91h-.33v.02Z"/>
    </g>
    <path class="cls-1" d="M143.03,78.77c.99,5.29,4.3,7.27,10.9,7.27s9.25-1.65,9.25-4.63-.66-2.64-2.31-3.63-2.64-1.32-8.26-2.31c-7.6-1.32-11.23-2.31-14.54-3.63-4.63-1.65-7.93-3.97-9.91-6.94-1.65-2.64-2.31-5.95-2.31-9.25,0-11.9,9.91-19.16,26.43-19.16s16.52,1.98,21.15,6.28c3.3,2.97,4.96,5.62,6.28,11.23l-19.16,1.98c-.33-3.97-2.97-5.95-8.26-5.95s-8.26,1.65-8.26,4.3,1.98,3.63,11.9,5.95c9.58,1.98,12.89,2.97,16.19,4.63,6.28,3.3,9.58,7.93,9.58,15.2s-1.65,9.91-4.96,13.22c-4.63,4.63-12.89,7.27-23.46,7.27s-21.15-3.3-26.1-9.91c-1.98-2.64-2.97-5.29-3.96-9.91l19.49-2.31.33.33v-.03Z"/>
    <path class="cls-1" d="M186.32,98.92c.66-4.3.66-7.93.66-13.55v-47.58c0-6.28,0-9.91-.66-13.55h18.5c-.66,3.97-.66,7.27-.66,13.55v12.55c5.29-5.29,10.9-7.6,18.5-7.6s10.9,1.65,14.21,4.96c3.3,3.3,4.96,7.93,4.96,15.2v22.47c0,5.29,0,9.58.66,13.55h-18.5c.66-4.3.66-7.93.66-13.55v-18.5c0-3.63-.33-5.29-1.32-6.61-1.32-1.65-3.3-2.31-5.62-2.31-4.96,0-9.91,3.3-13.55,9.25v18.17c0,4.96,0,8.92.66,13.55h-18.5Z"/>
    <path class="cls-1" d="M305.27,48.7c-.66,4.3-.66,7.93-.66,13.55v27.75c0,6.28,0,9.91.66,13.55h-17.84v-6.28c-5.95,5.62-10.9,7.6-18.5,7.6s-10.9-1.65-14.21-4.96c-3.63-3.63-4.96-7.93-4.96-15.2v-22.47c0-5.29,0-9.58-.66-13.55h18.5c-.66,4.3-.66,7.93-.66,13.55v18.5c0,3.63.33,5.29,1.32,6.61,1.32,1.65,3.3,2.64,5.95,2.64,4.96,0,9.91-3.63,13.55-9.25v-18.5c0-4.96,0-8.92-.66-13.55h18.5-.33Z"/>
    <path class="cls-1" d="M313.86,104.54c.66-3.97.66-7.93.66-13.55v-27.75c0-6.94,0-9.91-.66-13.55h17.84v4.95h0v.99c4.63-4.96,9.91-7.27,17.18-7.27s8.59.99,11.56,3.3c1.65,1.32,2.64,2.31,3.63,4.63,5.62-5.62,10.9-7.93,18.83-7.93,12.89,0,19.49,6.94,19.49,20.49v22.14c0,5.62,0,9.25.66,13.55h-18.5c.66-4.3.66-7.6.66-13.55v-18.5c0-6.61-1.98-9.25-6.94-9.25s-8.59,3.63-10.9,9.58v18.17c0,5.29,0,9.25.66,13.55h-18.5c.66-3.97.66-7.93.66-13.55v-18.5c0-3.63-.33-5.62-1.65-6.94-.99-1.32-2.64-2.31-4.96-2.31-4.96,0-8.92,3.63-11.56,9.58v18.17c0,5.62,0,9.25.66,13.55h-18.83,0Z"/>
    <path class="cls-1" d="M407.7,76.45c0-19.16,12.23-31.39,31.72-31.39s31.72,12.23,31.72,31.06-12.56,31.72-31.72,31.72-31.39-12.23-31.39-31.39h-.33ZM426.2,76.45c0,10.57,4.96,17.18,13.22,17.18s13.22-6.28,13.22-16.85-4.96-17.18-12.89-17.18-13.55,6.28-13.55,16.85Z"/>
    <path class="cls-1" d="M490.96,28.21c1.98,0,3.3,1.65,2.97,3.3v28.08c0,2.64,3.3,4.3,5.29,2.31l4.63-4.63c3.3-3.3,5.29-5.62,6.94-7.93s1.65-1.32,2.64-1.32h14.21c2.97,0,4.3,3.3,2.31,5.29-1.32,1.32-2.53,2.42-3.63,3.3l-11.23,10.57c-.99.99-1.32,2.64-.33,3.97l13.55,19.83c3.3,4.63,13.88,7.27,14.87,8.92s0,2.97-1.65,2.97l-25.77-.66c-1.32,0-2.31-.66-2.97-1.98-1.32-3.3-2.97-6.61-5.29-9.91l-4.63-7.93c-.99-1.65-3.3-1.98-4.96-.66l-3.97,3.63v13.21c0,2.31-1.32,3.3-2.97,3.3h-11.23c-1.98,0-3.3-1.65-2.97-3.3,0-2.97.33-5.95.33-10.24v-47.58c0-4.3,0-7.6-.33-10.24s1.32-3.3,2.97-3.3h11.23v.99h0Z"/>
    <path class="cls-1" d="M599.67,49.69c-.66,4.3-.66,7.93-.66,13.55v27.75c0,6.28,0,9.91.66,13.55h-17.84v-6.28c-5.95,5.62-10.9,7.6-18.5,7.6s-10.9-1.65-14.21-4.96c-3.63-3.63-4.96-7.93-4.96-15.2v-22.47c0-5.29,0-9.58-.66-13.55h18.5c-.66,4.3-.66,7.93-.66,13.55v18.5c0,3.63.33,5.29,1.32,6.61,1.32,1.65,3.3,2.64,5.95,2.64,4.96,0,9.91-3.63,13.55-9.25v-18.5c0-4.96,0-8.92-.66-13.55h18.5-.33Z"/>
  </g>
</svg>