<?xml version="1.0" encoding="utf-8"?>
<!-- Generator: Adobe Illustrator 30.0.0, SVG Export Plug-In . SVG Version: 9.03 Build 0)  -->
<svg version="1.1" id="レイヤー_1" xmlns="http://www.w3.org/2000/svg" xmlns:xlink="http://www.w3.org/1999/xlink" x="0px"
	 y="0px" viewBox="0 0 1500 500" style="enable-background:new 0 0 1500 500;" xml:space="preserve">
<style type="text/css">
	.st0{fill:#FFFFFF;}
	.st1{fill:#FFEF00;}
</style>
<g id="ロゴ_00000108291988938701232390000015113590653939629452_">
	<g>
		<path class="st0" d="M2.3,226c8.6,3.5,21.3,6.1,34.1,6.1c24.8,0,36.3-12.4,36.3-50V22.4h58.9v167.9c0,67.5-32.2,93.3-87.6,93.3
			c-16.2,0-32.8-2.2-44.3-6.7L2.3,226z"/>
		<path class="st0" d="M215.3,240.5c-5.1,0-7.3,1.6-9.2,6.7c-2.2,6.1-4.8,12.1-9.6,26.4c-2.9,7.6-4.5,8.9-12.7,8.9h-40.1
			c-5.1,0-7.3-0.6-7.3-3.2c0-1.3,0.6-2.9,1.9-5.4c11.8-26.4,18.2-40.8,23.6-53.5l46.8-109.9c6.1-14.7,13.7-32.2,22-53.8
			c3.2-7.6,4.8-8.9,13.1-8.9h25.2c8.3,0,9.9,1.3,13.1,8.9c8.3,21.7,15.9,39.8,21.7,52.9l46.8,109.6c6.1,14,12.4,28.4,24.2,54.8
			c1.3,2.5,1.9,4.1,1.9,5.4c0,2.5-2.2,3.2-7.3,3.2h-43.3c-8.3,0-9.9-1.3-12.7-8.9c-4.8-14.3-7.3-20.4-9.6-26.4
			c-1.9-5.4-3.5-6.7-9.2-6.7H215.3z M229.6,188.2c-1,2.2-1.3,4.1-1.3,5.4c0,2.9,2.2,3.5,7.3,3.5h38.2c5.1,0,7.3-0.6,7.3-3.5
			c0-1.3-0.3-3.2-1.3-5.4L258.3,134c-1-2.5-2.2-3.8-3.5-3.8c-1.3,0-2.5,1.3-3.5,3.8L229.6,188.2z"/>
		<path class="st0" d="M451,218.8c0,16.9,1,53.5,1,55.8c0,6.7-1.9,8-9.2,8h-35.4c-7.3,0-9.2-1.3-9.2-8c0-2.2,1-38.9,1-55.8V111.4
			c0-16.9-1-53.5-1-55.7c0-6.7,1.9-8,9.2-8h21c8,0,10.5,1.3,15.6,7.3c11.8,14.3,22.9,27.1,34.4,40.1l66.3,75.5
			c1.6,1.9,3.2,2.9,4.1,2.9c1.3,0,2.2-1.6,2.2-5.1v-57c0-16.9-1-53.5-1-55.7c0-6.7,1.9-8,9.2-8h35.4c7.3,0,9.2,1.3,9.2,8
			c0,2.2-1,38.9-1,55.7v107.4c0,16.9,1,53.5,1,55.8c0,6.7-1.9,8-9.2,8h-15.9c-8,0-10.5-1.3-15.6-7.3c-11.5-13.4-22-25.2-35-39.8
			L457.4,156c-1.6-1.9-2.9-2.5-3.8-2.5c-1.6,0-2.5,1.6-2.5,5.1V218.8z"/>
		<path class="st0" d="M1090.5,259.2c0,7.6-1.6,9.9-8.6,13.1c-16.2,6.7-42.4,12.1-67.2,12.1c-85.7,0-121.4-50.7-121.4-113.1
			c0-81.9,57.3-125.5,130.9-125.5c21.3,0,42.4,4.8,57,11.5c4.5,2.2,6.7,4.1,6.7,7c0,1.6-0.6,3.5-1.6,6.1l-13.4,35
			c-1.6,4.5-2.9,6.7-5.1,6.7c-1.6,0-3.5-1-6.4-2.5c-10.2-5.4-24.5-9.2-38.2-9.2c-43.6,0-74.2,26.8-74.2,71
			c0,45.9,30.9,64.4,68.2,64.4c4.1,0,8.3-0.3,12.1-1c7.6-1.3,9.2-3.2,9.2-10.8v-4.8c0-12.7-1-37.6-1-39.8c0-6.7,1.9-8,9.2-8h35.4
			c7.3,0,9.2,1.3,9.2,8c0,2.2-1,27.1-1,39.8V259.2z"/>
	</g>
	<g>
		<path class="st0" d="M1214.4,115.4c55.4,0,93.4,25.4,93.4,74.9c0,43.9-28.2,92-112.5,92c-23.7,0-51.6-5.6-71.4-15.3
			c-4.9-2.4-7.3-4.5-7.3-7.7c0-1.7,0.7-3.8,1.7-6.6l12.2-31.7c2.1-4.9,3.5-7,5.9-7c1.4,0,3.5,1,6.6,3.1c16.4,10.4,36.9,15,54,15
			c36.2,0,51.2-16,51.2-38c0-21.9-21.2-32.4-47.4-32.4c-13.6,0-24.7,1.7-33.1,4.5c-4.9,1.7-8.4,2.4-11.5,2.4s-6.3-0.7-11.1-2.1
			l-7.7-2.1c-7-2.1-9.1-3.8-9.1-9.1c0-1,0-2.8,0.3-4.5c1.4-11.8,2.4-21.9,3.5-34.8l3.8-46.7c1-13.6,2.1-24.7,2.4-36.6
			c0.3-8.4,1.7-10.1,8.7-10.1c4.5,0,42.8,0.7,61.3,0.7h21.9c18.5,0,58.5-0.7,61-0.7c7.3,0,8.7,2.1,8.7,10.1v35.2
			c0,8-1.4,10.1-8.7,10.1c-2.4,0-42.5-0.7-61-0.7h-30.7c-9.1,0-10.8,1.4-11.5,10.5l-1,15.3c-0.3,2.8-0.7,7-0.7,8
			c0,4.2,1.4,5.6,5.6,5.6C1195.2,116.8,1205,115.4,1214.4,115.4z"/>
	</g>
	<g>
		<path class="st0" d="M1441.8,263.9c-5.9,16-11.5,31.3-21.6,60.3c-3.1,8.4-4.9,9.8-13.9,9.8H1361c-5.6,0-8-0.7-8-3.8
			c0-1.4,0.7-3.1,1.7-5.9c11.5-27.9,17.8-43.9,23.7-59.2l46.7-122.6c1-2.4,1.4-4.5,1.4-5.9c0-3.1-2.4-3.8-8-3.8h-46.7
			c-18.5,0-56.4,1-61,1c-7.3,0-8.7-2.4-8.7-10.5V87.3c0-8,1.4-10.1,8.7-10.1c2.4,0,42.5,0.7,61,0.7h57.8c18.5,0,58.5-0.7,61-0.7
			c7.3,0,8.7,2.1,8.7,10.1v17.1c0,7.7-1,13.2-3.8,20.2c-7.3,17.8-14.3,35.9-19.5,49.8L1441.8,263.9z"/>
	</g>
	<g>
		<path class="st0" d="M605.3,363.4c-0.1,7.3-4.6,13.1-12.5,13c-6.5-0.1-11.4-4.6-11.3-11.2c0.1-6.8,4.6-12.6,12.5-12.5
			C600.4,352.8,605.3,357.1,605.3,363.4z M587.7,471.3c-3.8,0-4.8-0.7-4.8-4.2c0-1.2,0.5-14.9,0.5-22.4l0.3-32
			c0.1-7.5-0.2-21.2-0.2-22.4c0-3.5,1-4.1,4.8-4.1l9.6,0.1c3.8,0,4.8,0.7,4.8,4.2c0,1.2-0.4,14.9-0.5,22.4l-0.3,32
			c-0.1,7.5,0.2,21.2,0.2,22.4c0,3.5-1,4.1-4.8,4.1L587.7,471.3z"/>
		<path class="st0" d="M640.9,445.2c-0.1,7.5,0.2,21.2,0.2,22.4c0,3.5-1,4.1-4.8,4.1l-9.6-0.1c-3.8,0-4.8-0.7-4.8-4.2
			c0-1.2,0.5-14.9,0.5-22.4l0.3-32c0.1-7.5-0.2-21.2-0.2-22.4c0-3.5,1-4.1,4.8-4.1l8,0.1c4,0,4.6,0.7,4.8,4.7
			c0.1,2.2,0.5,3.2,1.3,3.2c0.5,0,1.3-0.3,2.5-1.1c6.3-4.6,14.1-7.5,23.1-7.4c17.1,0.1,28.4,11.5,28.3,29.9l-0.2,29.8
			c-0.1,7.5,0.2,21.2,0.2,22.4c0,3.5-1,4.1-4.8,4.1l-9.6-0.1c-3.8,0-4.8-0.7-4.8-4.2c0-1.2,0.5-14.9,0.5-22.4l0.2-24.7
			c0.1-10.1-5.2-16.9-16.1-17c-5.1,0-10.4,1.6-15.6,5.3c-2.8,2.3-3.7,3.8-3.7,7.4L640.9,445.2z"/>
		<path class="st0" d="M857.3,413.3c-0.3,38.9-28.2,60.9-60,60.6c-35.9-0.3-56.3-28.3-56-59.3c0.3-36.6,25.2-60.3,59.6-60
			C837,355,857.5,382.4,857.3,413.3z M761.2,415c-0.2,22.4,13.3,40.5,36.9,40.7c21.5,0.2,39.1-15.4,39.3-41.6
			c0.2-22.2-13.4-40.2-37.1-40.4C776.6,373.6,761.4,391.2,761.2,415z"/>
		<path class="st0" d="M949.4,441.4c-0.2,21.4-16.3,33.8-41.8,33.6c-12.8-0.1-25.5-3.7-34.7-8.9c-2.1-1.2-3.1-2.2-3.1-3.7
			c0-0.8,0.3-1.8,1-3.3l4.2-8.6c1-2.1,1.7-3.3,2.8-3.3c0.8,0,1.8,0.7,3.1,1.7c7.9,5.5,18.5,8.8,28.3,8.8
			c12.4,0.1,20.6-5.6,20.7-14.9c0.1-9.6-10.5-14.8-24.2-20.6c-16-6.8-33-15-32.9-34.9c0.2-20.5,16.7-32.2,41.8-32
			c10.6,0.1,21.2,3,28.4,6.4c2.3,1.2,3.5,2,3.4,3.5c0,0.8-0.3,1.8-0.9,3.1l-3.9,9.7c-1,2.3-1.7,3.5-2.7,3.5c-0.8,0-1.8-0.5-3.3-1.5
			c-6.1-3.7-14.9-6.6-23.5-6.6c-13.3-0.1-19.8,5.6-19.8,13.4c-0.1,8.6,8.5,13,22.2,18.9C932,413.3,949.5,421.5,949.4,441.4z"/>
		<path class="st0" d="M996.5,446.9c-4.3,0-5.5,0.3-7,3.9c-2.4,5.4-4.6,11.1-7.4,19c-1.5,4-2.4,4.6-6.7,4.6l-11.6-0.1
			c-2.7,0-3.8-0.4-3.8-1.7c0-0.7,0.3-1.5,1-2.8c5.2-11.6,8.9-19.8,12.5-27.9l24.1-56c3-7.1,6.6-15,10.1-23.9c1.5-4,2.4-4.6,6.7-4.6
			l7.1,0.1c4.3,0,5.1,0.7,6.6,4.7c3.4,9,6.7,17,9.6,23.9l23.4,56.2c3.6,8.6,7.2,17,12.2,28.4c0.7,1.3,1,2.2,1,2.8
			c0,1.3-1.2,1.6-3.8,1.6l-12.8-0.1c-4.3,0-5.1-0.7-6.6-4.7c-2.8-8-4.9-13.6-7.1-19.1c-1.5-3.7-2.5-4-6.9-4L996.5,446.9z
			 M999.6,426.4c-0.5,1.2-0.7,2.1-0.7,2.8c0,1.5,1.1,1.8,3.8,1.9l28.3,0.2c2.7,0,3.8-0.3,3.8-1.8c0-0.7-0.2-1.7-0.6-2.8l-15.1-38.1
			c-0.6-1.7-1.1-2.7-1.8-2.7c-0.5,0-1.2,0.8-1.8,2.6L999.6,426.4z"/>
		<path class="st0" d="M1107.9,442.3c-0.1,9.6,0.3,27.8,0.3,29c0,3.5-1,4.1-4.8,4.1l-10.3-0.1c-3.8,0-4.8-0.7-4.8-4.2
			c0-1.2,0.7-19.4,0.7-29l0.4-51c0.1-9.6-0.3-27.8-0.3-29c0-3.5,1-4.1,4.8-4.1l10.3,0.1c3.8,0,4.8,0.7,4.8,4.2
			c0,1.2-0.7,19.4-0.7,29l-0.1,13.9c0,1.8,0.3,2.7,1.1,2.7c0.5,0,1.3-0.3,2.2-1.3l18.2-19.4c6.9-7.4,13.4-14.3,22.6-24.8
			c2.8-3.1,4.2-3.8,8.3-3.7l15.1,0.1c2.2,0,3.1,0.5,3.1,1.5c0,0.7-0.3,1.3-1.3,2.3c-13.2,13.3-20.4,20.9-28.9,29.6l-7.7,8.1
			c-1.5,1.6-2.3,2.8-2.4,4c0,1,0.6,2.2,1.6,3.8l17.7,29.1c6.2,9.5,12.1,18.8,22.1,34.8c0.8,1.3,1.3,2.2,1.3,2.8c0,1-1.2,1.3-3.7,1.3
			l-13.6-0.1c-4.3,0-5.3-0.7-7.4-4.4c-6.9-12.3-12.1-20.8-17.7-29.6l-12.3-19.8c-1.1-1.8-2-2.7-2.8-2.7c-1,0-1.8,0.6-3.2,2.1
			l-10.4,11c-1.8,2-2.3,3.1-2.4,5.9L1107.9,442.3z"/>
		<path class="st0" d="M1226.1,448.7c-4.3,0-5.5,0.3-7,3.9c-2.4,5.4-4.6,11.1-7.4,19c-1.5,4-2.4,4.6-6.7,4.6l-11.6-0.1
			c-2.7,0-3.8-0.4-3.8-1.7c0-0.7,0.3-1.5,1-2.8c5.2-11.6,8.9-19.8,12.5-27.9l24.1-56c3-7.1,6.6-15,10.1-23.9c1.5-4,2.4-4.6,6.7-4.6
			l7.1,0.1c4.3,0,5.1,0.7,6.6,4.7c3.4,9,6.7,17,9.6,23.9l23.4,56.2c3.6,8.6,7.2,17,12.2,28.4c0.7,1.3,1,2.2,1,2.8
			c0,1.3-1.2,1.6-3.8,1.6l-12.8-0.1c-4.3,0-5.1-0.7-6.6-4.7c-2.8-8-4.9-13.6-7.1-19.1c-1.5-3.7-2.5-4-6.9-4L1226.1,448.7z
			 M1229.3,428.2c-0.5,1.2-0.7,2.1-0.7,2.8c0,1.5,1.1,1.8,3.8,1.9l28.3,0.2c2.7,0,3.8-0.3,3.8-1.8c0-0.7-0.2-1.7-0.6-2.8l-15.1-38.1
			c-0.6-1.7-1.1-2.7-1.8-2.7c-0.5,0-1.2,0.8-1.8,2.6L1229.3,428.2z"/>
	</g>
	<path class="st1" d="M756.6,50.1c-30.2,0-57.3,8.9-78,25.5c-3.2-3.2-7.1-6.9-9.7-9.6l-22.4-22.8c-5.2-5.3-14.6-15.3-15.5-16.2
		c-2.4-2.5-3.6-2.3-6.3,0.4l-6.8,6.7c-2.7,2.7-3,3.8-0.5,6.3c0.8,0.8,10.7,10.4,15.9,15.7L655.6,79c2.6,2.6,6.2,6.4,9.3,9.7
		c-17.6,20.2-28.1,47.9-28.1,81.8c0,55.4,36.3,118.2,114.4,118.2c65,0,120.1-43.6,120.1-121.4C871.2,112.2,835.6,50.1,756.6,50.1z
		 M753.4,238c-44,0-61.2-34.7-61.2-67.2c0-1.5,0.1-3.1,0.1-4.6c7.4,3.8,20.8,4.4,43.6-12c10.3-7.4,22.3-12.4,34.6-12.6
		c6.1-0.1,12.2,1.1,17.8,3.9c7.9,3.9,13.8,12,22.5,14.2c1.5,0.4,3,0.5,4.4,0.4c0.4,3.5,0.7,7.1,0.7,10.6
		C815.8,212.5,788.7,238,753.4,238z"/>
</g>
</svg>
